<svg xmlns="http://www.w3.org/2000/svg" xmlns:xlink="http://www.w3.org/1999/xlink" viewBox="0 0 32 32" id="logout"><defs><linearGradient id="a" x1="2.5" x2="13.532" y1="16.185" y2="16.185" gradientUnits="userSpaceOnUse"><stop offset="0" stop-color="#000"></stop><stop offset="1" stop-color="#00f"></stop></linearGradient><linearGradient id="b" x1="6.5" x2="25.492" y1="16.142" y2="16.142" xlink:href="#a"></linearGradient></defs><g data-name="Layer 24"><path fill="url(#a)" d="M13.0322,28.6846H4a.5007.5007,0,0,1-.5-.5v-24a.5006.5006,0,0,1,.5-.5h9.0322a.5.5,0,0,0,0-1H4a1.5016,1.5016,0,0,0-1.5,1.5v24a1.5017,1.5017,0,0,0,1.5,1.5h9.0322a.5.5,0,0,0,0-1Z"></path><path fill="url(#b)" d="M25.4879,16.06a.4918.4918,0,0,0-.1383-.4181L19.3174,9.7505a.5.5,0,0,0-.6992.7158l5.1606,5.04-16.7817.0919a.4994.4994,0,0,0-.4971.503.4778.4778,0,0,0,.5029.497l16.8037-.0923L18.61,21.8257a.5.5,0,1,0,.7148.6992L25.3574,16.35l.0013-.0025a.4842.4842,0,0,0,.1182-.2266A.4566.4566,0,0,0,25.4879,16.06Z"></path></g></svg>